<svg fill="#000000" viewBox="-2.4 -2.4 28.80 28.80" id="warning-alt-2" data-name="Flat Color" xmlns="http://www.w3.org/2000/svg" class="icon flat-color"><g id="SVGRepo_bgCarrier" stroke-width="0"><rect x="-2.4" y="-2.4" width="28.80" height="28.80" rx="0" fill="#eab308" strokewidth="0"></rect></g><g id="SVGRepo_tracerCarrier" stroke-linecap="round" stroke-linejoin="round"></g><g id="SVGRepo_iconCarrier"><path id="primary" d="M23,11,18.35,3a2,2,0,0,0-1.73-1H7.38A2,2,0,0,0,5.65,3L1,11a2,2,0,0,0,0,2l4.62,8a2,2,0,0,0,1.73,1h9.24a2,2,0,0,0,1.73-1L23,13A2,2,0,0,0,23,11Z" style="fill: #eab308;"></path><path id="secondary" d="M11,13V7a1,1,0,0,1,2,0v6a1,1,0,0,1-2,0Zm1,2.5A1.5,1.5,0,1,0,13.5,17,1.5,1.5,0,0,0,12,15.5Z" style="fill: #fff;"></path></g></svg>